<?xml version="1.0" encoding="utf-8"?>
<!-- Generator: Adobe Illustrator 24.0.3, SVG Export Plug-In . SVG Version: 6.00 Build 0)  -->
<svg version="1.1" id="Layer_1" xmlns="http://www.w3.org/2000/svg" xmlns:xlink="http://www.w3.org/1999/xlink" x="0px" y="0px"
	 viewBox="0 0 200 200" style="enable-background:new 0 0 200 200;" xml:space="preserve">
<style type="text/css">
	.st0{clip-path:url(#SVGID_2_);fill:url(#SVGID_3_);}
	.st1{fill-rule:evenodd;clip-rule:evenodd;fill:#FFFFFF;}
</style>
<g>
	<g>
		<defs>
			<path id="SVGID_1_" d="M44.9,0C21.2,0,1.9,19.4,1.6,43.5v112.8c0.2,23.9,19.3,43.3,42.9,43.5h111c23.7-0.2,42.9-19.8,42.9-44V44
				c0-24.3-19.4-44-43.3-44H44.9z"/>
		</defs>
		<clipPath id="SVGID_2_">
			<use xlink:href="#SVGID_1_"  style="overflow:visible;"/>
		</clipPath>
		
			<linearGradient id="SVGID_3_" gradientUnits="userSpaceOnUse" x1="-480.6531" y1="3612.7322" x2="-479.1236" y2="3612.7322" gradientTransform="matrix(0 130.645 -130.645 0 472085.4688 62794.9375)">
			<stop  offset="0" style="stop-color:#E1111C"/>
			<stop  offset="1" style="stop-color:#A81A17"/>
		</linearGradient>
		<rect x="1.6" class="st0" width="196.7" height="199.8"/>
	</g>
	<path class="st1" d="M165.9,29.8c-0.3-5.8-9.1-5.8-9.5,0c-0.1,2,1.8,3.3,1.8,5.4c0,3.1-2.8,5.9-4,8.7c-11.4-5.3-32.6-6.5-42.6,0.4
		c-6.1,4.2-10,14.7-13.5,22.6c-4,9-8.2,17.6-9.5,26.6c3.5-2.5,5.2-6.9,6.9-10.6c1.9-3.9,3.4-8.2,5.5-12.4c3.6-7.2,7.4-18,13.8-21.5
		c9.8-5.4,32-5,38.2,2.9c1.7,2.1,2.3,5.8,1.8,10.2c-0.8,8-4.5,15.5-7.6,22.6c-6.3,14.1-12.8,26.2-21.9,38.6
		c-5.1,7-11.3,16.3-20.7,14.9c-9.4-1.4-15.7-8.5-22.6-12.7c-0.5,2.7-2.4,4.2-4.7,5.5c-15.8,8.6-35-4.4-43.7-12
		c0.8,10.1,3.5,17.9,7.6,25.8c2.7,5.3,9.4,17,14.9,18.9c3.7,1.3,10,0.6,13.5,0.4c18.1-1,30.4-11.6,39-21.1
		c9.6,0.4,16.2-9.3,21.8-16.4c10.2-12.9,18.5-27.2,24.8-43c4.4-11.1,10.8-27.9,2.9-37.1c1.8-3.2,2.8-7.2,3.6-11.3
		C164.2,33.7,166,33.2,165.9,29.8 M78.5,156.5c-0.7,0-1.2,0.2-1.5,0.7c-1.5,0.1-1.1-1.5-2.2-1.8c-2.3,0.3-3.6,1.5-6.2,1.5v-2.2
		c3.4-0.8,7.6-0.9,7.7-5.1c-3.6-3.3-13.8,3.1-13.5-4c0.1-1.9,1.8-2.8,3.3-4c0-0.9-0.2-1.7-0.7-2.2c0.1-1,1.5-0.6,1.8-1.5
		c1.1-0.1,0.8,1.2,1.1,1.8c1.9,0.2,3.5-1.4,4.7-0.8c-0.3,4.2-7.2,1.8-6.9,6.6c5.1,2.4,12.1-2.5,13.5,2.9c0.8,3.3-2.5,3.6-2.5,5.5
		C77,154.8,79.4,155.4,78.5,156.5 M119.2,57.1c-0.8-0.5-1.2-1.5-2.9-1.1c-3.1,4.6-11.6,15.1-9.8,22.6c1,4.3,7.7,5.5,13.5,6.2
		c4.2,0.5,12.9,2.1,12.7-2.9c-5.7-2.9-21.1,1.7-22.6-5.1c-0.7-3.1,2.5-7.6,4-10.2C116.2,62.9,118.2,60.8,119.2,57.1"/>
</g>
</svg>
